<svg xmlns="http://www.w3.org/2000/svg" xmlns:xlink="http://www.w3.org/1999/xlink" version="1.1" x="0px" y="0px" viewBox="0 0 60 75" style="enable-background:new 0 0 60 60;" xml:space="preserve"><path d="M43.76,23.67c-0.55,0-1,0.45-1,1v5.13c0,7.04-5.72,12.76-12.76,12.76c-7.04,0-12.76-5.72-12.76-12.76v-5.13  c0-0.55-0.45-1-1-1s-1,0.45-1,1v5.13c0,6.67,4.45,12.31,10.53,14.13v4.15h-0.7c-3.26,0-5.91,2.65-5.91,5.91c0,0.55,0.45,1,1,1h19.12  c0.55,0,1-0.45,1-1c0-3.26-2.65-5.91-5.91-5.91h-0.7v-4c6.37-1.63,11.11-7.41,11.11-14.28v-5.13  C44.76,24.12,44.31,23.67,43.76,23.67z M38.14,53H21.28c0.44-1.67,1.97-2.91,3.78-2.91h1.7h5.89h1.7  C36.17,50.09,37.7,51.33,38.14,53z M31.65,48.09h-3.89v-3.71c0.73,0.11,1.47,0.19,2.23,0.19c0.56,0,1.11-0.04,1.65-0.1V48.09z"/><path d="M30,5c-4.75,0-8.62,3.87-8.62,8.62V29.8c0,4.75,3.87,8.62,8.62,8.62s8.62-3.87,8.62-8.62V13.62C38.62,8.87,34.75,5,30,5z   M30,36.42c-3.54,0-6.43-2.79-6.6-6.29h1.64c0.55,0,1-0.45,1-1s-0.45-1-1-1h-1.66v-2.95h1.66c0.55,0,1-0.45,1-1s-0.45-1-1-1h-1.66  v-2.95h1.66c0.55,0,1-0.45,1-1s-0.45-1-1-1h-1.66v-2.95h1.66c0.55,0,1-0.45,1-1s-0.45-1-1-1H23.4C23.57,9.79,26.46,7,30,7  c3.54,0,6.43,2.79,6.6,6.29h-1.64c-0.55,0-1,0.45-1,1s0.45,1,1,1h1.66v2.95h-1.66c-0.55,0-1,0.45-1,1s0.45,1,1,1h1.66v2.95h-1.66  c-0.55,0-1,0.45-1,1s0.45,1,1,1h1.66v2.95h-1.66c-0.55,0-1,0.45-1,1s0.45,1,1,1h1.64C36.43,33.63,33.54,36.42,30,36.42z"/></svg>